{"accessors":[{"bufferView":0,"componentType":5126,"count":60,"max":[1.0,2.1875,0.375],"min":[-1.0,-2.1875,-0.375],"normalized":false,"type":"VEC3"},{"bufferView":1,"componentType":5126,"count":60,"max":[0.0,0.0,0.0000763009302318096,1.0],"min":[-1.0,-1.0,-1.0,-1.0],"normalized":false,"type":"VEC4"},{"bufferView":2,"componentType":5126,"count":60,"max":[1.0,1.0,1.0],"min":[-1.0,-1.0,-1.0],"normalized":false,"type":"VEC3"},{"bufferView":3,"componentType":5126,"count":60,"max":[1.0,1.0],"min":[0.0,0.0],"normalized":false,"type":"VEC2"},{"bufferView":4,"componentType":5123,"count":60,"max":[59.0],"min":[0.0],"normalized":false,"type":"SCALAR"}],"asset":{"generator":"Godot Engine v4.5.stable.official@876b290332ec6f2e6d173d08162a02aa7e6ca46d","version":"2.0"},"bufferViews":[{"buffer":0,"byteLength":720,"byteStride":12,"target":34962},{"buffer":0,"byteLength":960,"byteOffset":720,"byteStride":16,"target":34962},{"buffer":0,"byteLength":720,"byteOffset":1680,"byteStride":12,"target":34962},{"buffer":0,"byteLength":480,"byteOffset":2400,"byteStride":8,"target":34962},{"buffer":0,"byteLength":120,"byteOffset":2880,"target":34963}],"buffers":[{"byteLength":3000,"uri":"TallBarricade0.bin"}],"extensionsUsed":["GODOT_single_root"],"images":[{"uri":"textures%2F_albedo.png"}],"materials":[{"extensions":{},"pbrMetallicRoughness":{"baseColorFactor":[1.0,1.0,1.0,1.0],"baseColorTexture":{"index":0},"metallicFactor":0.0,"roughnessFactor":1.0}}],"meshes":[{"primitives":[{"attributes":{"NORMAL":2,"POSITION":0,"TANGENT":1,"TEXCOORD_0":3},"indices":4,"material":0,"mode":4}]}],"nodes":[{"children":[1],"name":"TallBarricade"},{"children":[2],"mesh":0,"name":"TallBarricade12"},{"name":"TallBarricade1Subtraction","translation":[0.0,0.1875,0.375]}],"samplers":[{"magFilter":9729,"minFilter":9987,"wrapS":10497,"wrapT":10497}],"scene":0,"scenes":[{"nodes":[0]}],"textures":[{"sampler":0,"source":0}]}