{"accessors":[{"bufferView":0,"componentType":5126,"count":36,"max":[10.0,0.5,102.625],"min":[-10.0,-0.5,-102.625],"normalized":false,"type":"VEC3"},{"bufferView":1,"componentType":5126,"count":36,"max":[0.0,0.0,7.630093023180962e-05,-1.0],"min":[-1.0,-1.0,-1.0,-1.0],"normalized":false,"type":"VEC4"},{"bufferView":2,"componentType":5126,"count":36,"max":[1.0,1.0,1.0],"min":[-1.0,-1.0,-1.0],"normalized":false,"type":"VEC3"},{"bufferView":3,"componentType":5126,"count":36,"max":[1.0,1.0],"min":[0.0,0.0],"normalized":false,"type":"VEC2"},{"bufferView":4,"componentType":5121,"count":36,"max":[35],"min":[0],"normalized":false,"type":"SCALAR"},{"bufferView":5,"componentType":5126,"count":36,"max":[46.3125,0.25,107.5],"min":[-46.3125,-0.25,-107.5],"normalized":false,"type":"VEC3"}],"asset":{"generator":"Godot Engine v4.6.1.stable.official@14d19694e0c88a3f9e82d899a0400f27a24c176e","version":"2.0"},"bufferViews":[{"buffer":0,"byteLength":432,"byteStride":12,"target":34962},{"buffer":0,"byteLength":576,"byteOffset":432,"byteStride":16,"target":34962},{"buffer":0,"byteLength":432,"byteOffset":1008,"byteStride":12,"target":34962},{"buffer":0,"byteLength":288,"byteOffset":1440,"byteStride":8,"target":34962},{"buffer":0,"byteLength":36,"byteOffset":1728,"target":34963},{"buffer":0,"byteLength":432,"byteOffset":1764,"byteStride":12,"target":34962}],"buffers":[{"byteLength":2196,"uri":"BeachScene0.bin"}],"extensionsUsed":["GODOT_single_root"],"images":[{"uri":"textures%2F.png"},{"uri":"textures%2F.png"}],"materials":[{"name":"Mat_OrangePrototype","pbrMetallicRoughness":{"baseColorFactor":[1.0,1.0,1.0,1.0],"baseColorTexture":{"index":0},"metallicFactor":0.0,"roughnessFactor":1.0}},{"name":"Mat_PurplePrototype","pbrMetallicRoughness":{"baseColorFactor":[1.0,1.0,1.0,1.0],"baseColorTexture":{"index":1},"metallicFactor":0.0,"roughnessFactor":1.0}}],"meshes":[{"name":"SandFloor2","primitives":[{"attributes":{"NORMAL":2,"POSITION":0,"TANGENT":1,"TEXCOORD_0":3},"indices":4,"material":0,"mode":4}]},{"name":"Water2","primitives":[{"attributes":{"NORMAL":2,"POSITION":5,"TANGENT":1,"TEXCOORD_0":3},"indices":4,"material":1,"mode":4}]}],"nodes":[{"children":[1],"name":"BlenderExport"},{"children":[2,3],"name":"BeanWallScene"},{"mesh":0,"name":"SandFloor2","translation":[109.8499984741211,-2.3804492950439453,-2.125]},{"mesh":1,"name":"Water2","translation":[157.03750610351563,-2.6304492950439453,1.25]}],"samplers":[{"magFilter":9729,"minFilter":9987,"wrapS":10497,"wrapT":10497}],"scene":0,"scenes":[{"nodes":[0]}],"textures":[{"sampler":0,"source":0},{"sampler":0,"source":1}]}