{"accessors":[{"bufferView":0,"componentType":5126,"count":72,"max":[15.5,0.5,1.0],"min":[-15.5,-0.5,-1.0],"normalized":false,"type":"VEC3"},{"bufferView":1,"componentType":5126,"count":72,"max":[0.0,0.0,7.630093023180962e-05,1.0],"min":[-1.0,-1.0,-1.0,-1.0],"normalized":false,"type":"VEC4"},{"bufferView":2,"componentType":5126,"count":72,"max":[1.0,1.0,1.0],"min":[-1.0,-1.0,-1.0],"normalized":false,"type":"VEC3"},{"bufferView":3,"componentType":5126,"count":72,"max":[1.0,1.0],"min":[0.0,0.0],"normalized":false,"type":"VEC2"},{"bufferView":4,"componentType":5121,"count":72,"max":[71],"min":[0],"normalized":false,"type":"SCALAR"},{"bufferView":5,"componentType":5126,"count":36,"max":[15.5,0.5,1.0],"min":[-15.5,-0.5,-1.0],"normalized":false,"type":"VEC3"},{"bufferView":6,"componentType":5126,"count":36,"max":[0.0,0.0,7.630093023180962e-05,-1.0],"min":[-1.0,-1.0,-1.0,-1.0],"normalized":false,"type":"VEC4"},{"bufferView":7,"componentType":5126,"count":36,"max":[1.0,1.0,1.0],"min":[-1.0,-1.0,-1.0],"normalized":false,"type":"VEC3"},{"bufferView":8,"componentType":5126,"count":36,"max":[1.0,1.0],"min":[0.0,0.0],"normalized":false,"type":"VEC2"},{"bufferView":9,"componentType":5121,"count":36,"max":[35],"min":[0],"normalized":false,"type":"SCALAR"},{"bufferView":10,"componentType":5126,"count":72,"max":[1.0,0.5,12.0],"min":[-1.0,-0.5,-12.0],"normalized":false,"type":"VEC3"},{"bufferView":11,"componentType":5126,"count":72,"max":[0.0,0.0,7.630093023180962e-05,1.0],"min":[-1.0,-1.0,-1.0,-1.0],"normalized":false,"type":"VEC4"},{"bufferView":12,"componentType":5126,"count":72,"max":[1.0,1.0,1.0],"min":[-1.0,-1.0,-1.0],"normalized":false,"type":"VEC3"},{"bufferView":13,"componentType":5126,"count":72,"max":[1.0,1.0],"min":[0.0,0.0],"normalized":false,"type":"VEC2"},{"bufferView":14,"componentType":5126,"count":36,"max":[1.0,0.5,12.0],"min":[-1.0,-0.5,-12.0],"normalized":false,"type":"VEC3"}],"asset":{"generator":"Godot Engine v4.6.1.stable.official@14d19694e0c88a3f9e82d899a0400f27a24c176e","version":"2.0"},"bufferViews":[{"buffer":0,"byteLength":864,"byteStride":12,"target":34962},{"buffer":0,"byteLength":1152,"byteOffset":864,"byteStride":16,"target":34962},{"buffer":0,"byteLength":864,"byteOffset":2016,"byteStride":12,"target":34962},{"buffer":0,"byteLength":576,"byteOffset":2880,"byteStride":8,"target":34962},{"buffer":0,"byteLength":72,"byteOffset":3456,"target":34963},{"buffer":0,"byteLength":432,"byteOffset":3528,"byteStride":12,"target":34962},{"buffer":0,"byteLength":576,"byteOffset":3960,"byteStride":16,"target":34962},{"buffer":0,"byteLength":432,"byteOffset":4536,"byteStride":12,"target":34962},{"buffer":0,"byteLength":288,"byteOffset":4968,"byteStride":8,"target":34962},{"buffer":0,"byteLength":36,"byteOffset":5256,"target":34963},{"buffer":0,"byteLength":864,"byteOffset":5292,"byteStride":12,"target":34962},{"buffer":0,"byteLength":1152,"byteOffset":6156,"byteStride":16,"target":34962},{"buffer":0,"byteLength":864,"byteOffset":7308,"byteStride":12,"target":34962},{"buffer":0,"byteLength":576,"byteOffset":8172,"byteStride":8,"target":34962},{"buffer":0,"byteLength":432,"byteOffset":8748,"byteStride":12,"target":34962}],"buffers":[{"byteLength":9180,"uri":"BeanWall0.bin"}],"extensionsUsed":["GODOT_single_root"],"images":[{"uri":"textures%2F.png"}],"materials":[{"pbrMetallicRoughness":{"baseColorFactor":[1.0,1.0,1.0,1.0],"baseColorTexture":{"index":0},"metallicFactor":0.0,"roughnessFactor":1.0}}],"meshes":[{"name":"BeanWall12","primitives":[{"attributes":{"NORMAL":2,"POSITION":0,"TANGENT":1,"TEXCOORD_0":3},"indices":4,"material":0,"mode":4}]},{"name":"BeanWall22","primitives":[{"attributes":{"NORMAL":7,"POSITION":5,"TANGENT":6,"TEXCOORD_0":8},"indices":9,"material":0,"mode":4}]},{"name":"BeanWall32","primitives":[{"attributes":{"NORMAL":12,"POSITION":10,"TANGENT":11,"TEXCOORD_0":13},"indices":4,"material":0,"mode":4}]},{"name":"BeanWall42","primitives":[{"attributes":{"NORMAL":7,"POSITION":14,"TANGENT":6,"TEXCOORD_0":8},"indices":9,"material":0,"mode":4}]}],"nodes":[{"children":[1],"name":"BlenderExport"},{"children":[2,4,5,7],"name":"BeanWallScene"},{"children":[3],"mesh":0,"name":"BeanWall12","translation":[-11.997879028320313,-1.0,-17.5]},{"name":"ChasePSWall3Subtraction","scale":[1.0038435459136963,1.0038490295410156,1.0038490295410156],"translation":[8.028619766235352,0.06274056434631348,0.0]},{"mesh":1,"name":"BeanWall22","translation":[-12.000003814697266,-1.0,-43.5]},{"children":[6],"mesh":2,"name":"BeanWall32","translation":[2.500000238418579,-1.0,-30.5]},{"name":"ChasePSWall3Subtraction2","scale":[1.0,1.0,2.0],"translation":[-0.0006489753723144531,0.0,0.9990005493164063]},{"mesh":3,"name":"BeanWall42","translation":[-26.5000057220459,-1.0,-30.5]}],"samplers":[{"magFilter":9729,"minFilter":9987,"wrapS":10497,"wrapT":10497}],"scene":0,"scenes":[{"nodes":[0]}],"textures":[{"sampler":0,"source":0}]}