{"accessors":[{"bufferView":0,"componentType":5126,"count":36,"max":[1.5,0.5,16.0],"min":[-1.5,-0.5,-16.0],"normalized":false,"type":"VEC3"},{"bufferView":1,"componentType":5126,"count":36,"max":[0.0,0.0,7.630093023180962e-05,-1.0],"min":[-1.0,-1.0,-1.0,-1.0],"normalized":false,"type":"VEC4"},{"bufferView":2,"componentType":5126,"count":36,"max":[1.0,1.0,1.0],"min":[-1.0,-1.0,-1.0],"normalized":false,"type":"VEC3"},{"bufferView":3,"componentType":5126,"count":36,"max":[1.0,1.0],"min":[0.0,0.0],"normalized":false,"type":"VEC2"},{"bufferView":4,"componentType":5121,"count":36,"max":[35],"min":[0],"normalized":false,"type":"SCALAR"},{"bufferView":5,"componentType":5126,"count":84,"max":[8.5,0.5,2.5],"min":[-8.5,-0.5,-2.5],"normalized":false,"type":"VEC3"},{"bufferView":6,"componentType":5126,"count":84,"max":[0.0,0.0,7.630093023180962e-05,1.0],"min":[-1.0,-1.0,-1.0,-1.0],"normalized":false,"type":"VEC4"},{"bufferView":7,"componentType":5126,"count":84,"max":[1.0,1.0,1.0],"min":[-1.0,-1.0,-1.0],"normalized":false,"type":"VEC3"},{"bufferView":8,"componentType":5126,"count":84,"max":[1.0,1.0],"min":[0.0,0.0],"normalized":false,"type":"VEC2"},{"bufferView":9,"componentType":5121,"count":84,"max":[83],"min":[0],"normalized":false,"type":"SCALAR"},{"bufferView":10,"componentType":5126,"count":72,"max":[8.5,0.5,1.5],"min":[-8.5,-0.5,-1.5],"normalized":false,"type":"VEC3"},{"bufferView":11,"componentType":5126,"count":72,"max":[0.0,0.0,7.630093023180962e-05,1.0],"min":[-1.0,-1.0,-1.0,-1.0],"normalized":false,"type":"VEC4"},{"bufferView":12,"componentType":5126,"count":72,"max":[1.0,1.0,1.0],"min":[-1.0,-1.0,-1.0],"normalized":false,"type":"VEC3"},{"bufferView":13,"componentType":5126,"count":72,"max":[1.0,1.0],"min":[0.0,0.0],"normalized":false,"type":"VEC2"},{"bufferView":14,"componentType":5121,"count":72,"max":[71],"min":[0],"normalized":false,"type":"SCALAR"}],"asset":{"generator":"Godot Engine v4.6.1.stable.official@14d19694e0c88a3f9e82d899a0400f27a24c176e","version":"2.0"},"bufferViews":[{"buffer":0,"byteLength":432,"byteStride":12,"target":34962},{"buffer":0,"byteLength":576,"byteOffset":432,"byteStride":16,"target":34962},{"buffer":0,"byteLength":432,"byteOffset":1008,"byteStride":12,"target":34962},{"buffer":0,"byteLength":288,"byteOffset":1440,"byteStride":8,"target":34962},{"buffer":0,"byteLength":36,"byteOffset":1728,"target":34963},{"buffer":0,"byteLength":1008,"byteOffset":1764,"byteStride":12,"target":34962},{"buffer":0,"byteLength":1344,"byteOffset":2772,"byteStride":16,"target":34962},{"buffer":0,"byteLength":1008,"byteOffset":4116,"byteStride":12,"target":34962},{"buffer":0,"byteLength":672,"byteOffset":5124,"byteStride":8,"target":34962},{"buffer":0,"byteLength":84,"byteOffset":5796,"target":34963},{"buffer":0,"byteLength":864,"byteOffset":5880,"byteStride":12,"target":34962},{"buffer":0,"byteLength":1152,"byteOffset":6744,"byteStride":16,"target":34962},{"buffer":0,"byteLength":864,"byteOffset":7896,"byteStride":12,"target":34962},{"buffer":0,"byteLength":576,"byteOffset":8760,"byteStride":8,"target":34962},{"buffer":0,"byteLength":72,"byteOffset":9336,"target":34963}],"buffers":[{"byteLength":9408,"uri":"PSChaseWall0.bin"}],"extensionsUsed":["GODOT_single_root"],"images":[{"uri":"textures%2F.png"}],"materials":[{"pbrMetallicRoughness":{"baseColorFactor":[1.0,1.0,1.0,1.0],"baseColorTexture":{"index":0},"metallicFactor":0.0,"roughnessFactor":1.0}}],"meshes":[{"name":"ChasePSWall12","primitives":[{"attributes":{"NORMAL":2,"POSITION":0,"TANGENT":1,"TEXCOORD_0":3},"indices":4,"material":0,"mode":4}]},{"name":"ChasePSWall22","primitives":[{"attributes":{"NORMAL":2,"POSITION":0,"TANGENT":1,"TEXCOORD_0":3},"indices":4,"material":0,"mode":4}]},{"name":"ChasePSWall32","primitives":[{"attributes":{"NORMAL":7,"POSITION":5,"TANGENT":6,"TEXCOORD_0":8},"indices":9,"material":0,"mode":4}]},{"name":"ChasePSWall42","primitives":[{"attributes":{"NORMAL":12,"POSITION":10,"TANGENT":11,"TEXCOORD_0":13},"indices":14,"material":0,"mode":4}]}],"nodes":[{"children":[1],"name":"BlenderExport"},{"children":[2,3,4,6],"name":"ChasePSWallScene","translation":[10.000000953674316,-1.0,7.501999855041504]},{"mesh":0,"name":"ChasePSWall12"},{"mesh":1,"name":"ChasePSWall22","translation":[-20.0,0.0,-0.0019998550415039063]},{"children":[5],"mesh":2,"name":"ChasePSWall32","translation":[-9.99677848815918,0.0,13.500657081604004]},{"name":"ChasePSWall3Subtraction","scale":[1.1586681604385376,1.0,1.0],"translation":[-2.3653669357299805,0.0,-0.5]},{"children":[7],"mesh":3,"name":"ChasePSWall42","translation":[-10.000000953674316,0.0,-14.501999855041504]},{"name":"ChasePSWall3Subtraction2","translation":[-4.500001907348633,0.0,0.0]}],"samplers":[{"magFilter":9729,"minFilter":9987,"wrapS":10497,"wrapT":10497}],"scene":0,"scenes":[{"nodes":[0]}],"textures":[{"sampler":0,"source":0}]}